<?xml version="1.0" encoding="utf-8"?>
<!-- Generator: Adobe Illustrator 14.0.0, SVG Export Plug-In . SVG Version: 6.00 Build 43363)  -->
<!DOCTYPE svg PUBLIC "-//W3C//DTD SVG 1.1//EN" "http://www.w3.org/Graphics/SVG/1.1/DTD/svg11.dtd">
<svg version="1.1" id="Layer_1" xmlns="http://www.w3.org/2000/svg" xmlns:xlink="http://www.w3.org/1999/xlink" x="0px" y="0px"
	 width="244px" height="52px" viewBox="0 0 244 52" enable-background="new 0 0 244 52" xml:space="preserve">
<g>
	<path fill="#1B447E" d="M84.445,7.989v21.845h-7.026l-6.242-11.987c-0.31-0.598-0.795-1.643-1.456-3.137l-0.704-1.568l-0.688-1.568
		h-0.16l0.064,1.44l0.047,1.425l0.033,2.864v12.531h-4.146V7.989h7.026l5.682,11.074c0.501,0.982,1.082,2.172,1.744,3.57
		l0.832,1.776l0.833,1.792h0.144l-0.047-1.408l-0.048-1.409l-0.031-2.816V7.989H84.445z"/>
	<polygon fill="#1B447E" points="91.999,11.478 91.999,17.11 102.241,17.11 102.241,20.167 91.999,20.167 91.999,26.345 
		102.898,26.345 102.898,29.834 87.854,29.834 87.854,7.989 102.801,7.989 102.801,11.478 	"/>
	<path fill="#1B447E" d="M105.986,29.834V7.989h8.802h1.089c2.955,0,4.948,0.515,5.978,1.544c1.029,1.031,1.543,3.017,1.543,5.961
		c0,2.924-0.491,4.866-1.472,5.826c-0.982,0.96-2.966,1.441-5.954,1.441l-0.959,0.014h-4.882v7.059H105.986z M110.131,19.287h4.72
		c1.878,0,3.071-0.216,3.578-0.648c0.506-0.432,0.76-1.454,0.76-3.065c0-1.846-0.211-2.989-0.632-3.433
		c-0.421-0.442-1.518-0.664-3.29-0.664h-5.137V19.287z"/>
	<path fill="#1B447E" d="M139.259,25.641h-9.426l-1.36,4.193h-4.385l7.267-21.845h6.225l7.379,21.845h-4.307L139.259,25.641z
		 M138.3,22.584l-3.778-11.379l-3.712,11.379H138.3z"/>
	<polygon fill="#1B447E" points="150.991,7.989 150.991,26.121 161.233,26.121 161.233,29.834 146.846,29.834 146.846,7.989 	"/>
	<polygon fill="#1B447E" points="176.888,11.701 176.888,29.834 172.742,29.834 172.742,11.701 166.436,11.701 166.436,7.989 
		183.417,7.989 183.417,11.701 	"/>
	<path fill="#1B447E" d="M185.513,29.834V7.989h10.771c2.678,0,4.523,0.464,5.539,1.392c1.011,0.928,1.521,2.609,1.521,5.042
		c0,2.209-0.256,3.718-0.762,4.529c-0.506,0.811-1.544,1.372-3.113,1.681v0.143c2.424,0.15,3.633,1.564,3.633,4.243v4.816h-4.144
		v-3.986c0-2.25-1.111-3.377-3.329-3.377h-5.97v7.363H185.513z M189.658,18.983h5.952c1.42,0,2.361-0.253,2.827-0.761
		c0.463-0.505,0.695-1.522,0.695-3.049c0-1.557-0.201-2.562-0.601-3.015c-0.401-0.455-1.277-0.681-2.634-0.681h-6.24V18.983z"/>
	<polygon fill="#1B447E" points="210.351,11.478 210.351,17.11 220.594,17.11 220.594,20.167 210.351,20.167 210.351,26.345 
		221.25,26.345 221.25,29.834 206.206,29.834 206.206,7.989 221.152,7.989 221.152,11.478 	"/>
	<polygon fill="#1B447E" points="228.485,7.989 228.485,16.887 230.437,16.887 237.701,7.989 242.855,7.989 234.037,18.6 
		243.783,29.834 238.471,29.834 230.47,20.375 228.485,20.375 228.485,29.834 224.34,29.834 224.34,7.989 	"/>
	<path fill="#F3733A" d="M65.857,34.895h1.455l3.934,9.003h-1.66l-0.908-2.159h-4.225l-0.92,2.159h-1.608L65.857,34.895z
		 M68.104,40.348l-1.545-3.574l-1.531,3.574H68.104z"/>
	<path fill="#F3733A" d="M72.771,34.959h3.333c2.809,0,4.75,1.928,4.75,4.443v0.026c0,2.517-1.941,4.468-4.75,4.468h-3.333V34.959z
		 M76.104,42.467c1.876,0,3.102-1.263,3.102-3.013v-0.025c0-1.751-1.226-3.04-3.102-3.04h-1.762v6.078H76.104z"/>
	<polygon fill="#F3733A" points="81.411,34.959 83.147,34.959 85.841,41.828 88.521,34.959 90.22,34.959 86.505,43.961 
		85.126,43.961 	"/>
	<polygon fill="#F3733A" points="91.748,34.959 98.374,34.959 98.374,36.364 93.319,36.364 93.319,38.688 97.8,38.688 97.8,40.093 
		93.319,40.093 93.319,42.492 98.439,42.492 98.439,43.896 91.748,43.896 	"/>
	<polygon fill="#F3733A" points="100.299,34.959 101.755,34.959 106.542,41.139 106.542,34.959 108.086,34.959 108.086,43.896 
		106.772,43.896 101.844,37.538 101.844,43.896 100.299,43.896 	"/>
	<polygon fill="#F3733A" points="112.576,36.415 109.742,36.415 109.742,34.959 116.994,34.959 116.994,36.415 114.159,36.415 
		114.159,43.896 112.576,43.896 	"/>
	<path fill="#F3733A" d="M118.508,40.105V34.96h1.571v5.082c0,1.657,0.856,2.554,2.26,2.554c1.391,0,2.248-0.844,2.248-2.49V34.96
		h1.569v5.069c0,2.667-1.506,4.009-3.843,4.009C119.99,44.038,118.508,42.696,118.508,40.105"/>
	<path fill="#F3733A" d="M128.309,34.96h3.983c1.126,0,2.006,0.332,2.58,0.894c0.473,0.485,0.742,1.148,0.742,1.928v0.025
		c0,1.47-0.882,2.35-2.133,2.708l2.412,3.383h-1.852l-2.196-3.115h-1.967v3.115h-1.57V34.96z M132.179,39.39
		c1.122,0,1.837-0.587,1.837-1.494v-0.023c0-0.961-0.688-1.482-1.85-1.482h-2.287v3H132.179z"/>
	<polygon fill="#F3733A" points="137.535,34.959 144.162,34.959 144.162,36.364 139.106,36.364 139.106,38.688 143.588,38.688 
		143.588,40.093 139.106,40.093 139.106,42.492 144.226,42.492 144.226,43.896 137.535,43.896 	"/>
	<path fill="#F3733A" d="M154.918,42.863c-0.766,0.715-1.659,1.161-2.745,1.161c-1.659,0-2.91-1.008-2.91-2.554v-0.025
		c0-1.149,0.677-1.979,1.902-2.503c-0.511-0.65-0.74-1.213-0.74-1.863v-0.024c0-1.201,0.969-2.249,2.566-2.249
		c1.418,0,2.375,0.959,2.375,2.158v0.024c0,1.177-0.777,1.879-1.967,2.325l1.532,1.559c0.347-0.513,0.664-1.1,0.959-1.724
		l1.187,0.624c-0.358,0.715-0.753,1.417-1.212,2.042l1.404,1.431l-1.164,0.831L154.918,42.863z M154.025,41.945l-1.992-2.031
		c-0.829,0.358-1.187,0.905-1.187,1.48v0.027c0,0.751,0.625,1.301,1.493,1.301C152.954,42.723,153.514,42.428,154.025,41.945
		 M153.973,37.079v-0.024c0-0.603-0.421-1.011-1.019-1.011c-0.64,0-1.061,0.447-1.061,1.073v0.025c0,0.447,0.179,0.78,0.676,1.328
		C153.488,38.139,153.973,37.718,153.973,37.079"/>
	<polygon fill="#F3733A" points="162.624,34.959 169.251,34.959 169.251,36.364 164.195,36.364 164.195,38.688 168.675,38.688 
		168.675,40.093 164.195,40.093 164.195,42.492 169.314,42.492 169.314,43.896 162.624,43.896 	"/>
	<polygon fill="#F3733A" points="173.753,39.353 170.624,34.96 172.477,34.96 174.699,38.165 176.932,34.96 178.732,34.96 
		175.618,39.327 178.86,43.897 177.009,43.897 174.66,40.515 172.296,43.897 170.497,43.897 	"/>
	<path fill="#F3733A" d="M180.477,34.96H184c2.083,0,3.398,1.187,3.398,2.987v0.026c0,2.004-1.608,3.051-3.576,3.051h-1.775v2.873
		h-1.57V34.96z M183.872,39.606c1.189,0,1.93-0.665,1.93-1.595v-0.026c0-1.047-0.754-1.597-1.93-1.597h-1.825v3.218H183.872z"/>
	<polygon fill="#F3733A" points="189.002,34.959 195.628,34.959 195.628,36.364 190.572,36.364 190.572,38.688 195.053,38.688 
		195.053,40.093 190.572,40.093 190.572,42.492 195.692,42.492 195.692,43.896 189.002,43.896 	"/>
	<path fill="#F3733A" d="M197.553,34.959h3.331c2.81,0,4.749,1.928,4.749,4.443v0.026c0,2.517-1.939,4.468-4.749,4.468h-3.331
		V34.959z M200.884,42.467c1.876,0,3.104-1.263,3.104-3.013v-0.025c0-1.751-1.228-3.04-3.104-3.04h-1.761v6.078H200.884z"/>
	<rect x="207.62" y="34.959" fill="#F3733A" width="1.571" height="8.938"/>
	<polygon fill="#F3733A" points="213.771,36.415 210.938,36.415 210.938,34.959 218.19,34.959 218.19,36.415 215.356,36.415 
		215.356,43.896 213.771,43.896 	"/>
	<rect x="219.935" y="34.959" fill="#F3733A" width="1.57" height="8.938"/>
	<path fill="#F3733A" d="M223.495,39.455v-0.026c0-2.517,1.941-4.622,4.687-4.622c2.746,0,4.659,2.08,4.659,4.596v0.026
		c0,2.517-1.938,4.622-4.684,4.622S223.495,41.97,223.495,39.455 M231.195,39.455v-0.026c0-1.736-1.266-3.18-3.038-3.18
		c-1.775,0-3.015,1.416-3.015,3.153v0.026c0,1.735,1.264,3.179,3.039,3.179C229.956,42.607,231.195,41.19,231.195,39.455"/>
	<polygon fill="#F3733A" points="234.738,34.959 236.192,34.959 240.982,41.139 240.982,34.959 242.525,34.959 242.525,43.896 
		241.212,43.896 236.283,37.538 236.283,43.896 234.738,43.896 	"/>
	<path fill="#1B447E" d="M22.664,24.809H5.218c-2.876,0-5.208-2.332-5.208-5.209V0.721c0-0.438,0.356-0.794,0.794-0.794h18.879
		c2.876,0,5.208,2.332,5.208,5.208v17.447C24.891,23.812,23.895,24.809,22.664,24.809"/>
	<path fill="#37B778" d="M46.868,24.809H29.42c-1.229,0-2.226-0.997-2.226-2.227V5.135c0-2.876,2.332-5.208,5.208-5.208H51.28
		c0.439,0,0.796,0.356,0.796,0.794V19.6C52.076,22.477,49.743,24.809,46.868,24.809"/>
	<path fill="#F3733A" d="M19.683,51.992H0.805c-0.439,0-0.795-0.355-0.795-0.794V32.319c0-2.877,2.333-5.209,5.209-5.209h17.446
		c1.23,0,2.228,0.997,2.228,2.227v17.447C24.892,49.661,22.559,51.992,19.683,51.992"/>
	<path fill="#16A2DD" d="M51.281,51.992H32.403c-2.877,0-5.208-2.331-5.208-5.208V29.337c0-1.229,0.997-2.227,2.226-2.227h17.448
		c2.875,0,5.207,2.332,5.207,5.209v18.879C52.075,51.637,51.719,51.992,51.281,51.992"/>
	<path fill="#FFFFFF" d="M22.336,15.441l-7.893-7.894l-4.442,3.955L7.755,9.6l-6.377,6.378c-0.182,0.183,0.055,0.472,0.269,0.33
		l5.878-3.896l5.618,3.473c0.306,0.19,0.628-0.216,0.374-0.471l-2.818-2.819l3.746-2.062l7.62,5.237
		C22.279,15.915,22.521,15.625,22.336,15.441"/>
	<path fill="#FFFFFF" d="M11.333,31.81c0.918,1.125,2.04,1.574,2.318,0.675c0.278-0.9-0.618-2.562-1.55-3.188
		C11.171,28.669,9.765,29.886,11.333,31.81"/>
	<path fill="#FFFFFF" d="M8.789,31.273c-0.125,0.176-0.369,1.061,0.447,1.829c1.005,0.946,2.035-0.404,1.494-1.426
		C10.188,30.656,9.389,30.431,8.789,31.273"/>
	<path fill="#FFFFFF" d="M6.981,32.844c-0.114,0.161-0.34,0.978,0.412,1.685c0.925,0.871,1.874-0.372,1.375-1.313
		C8.269,32.276,7.535,32.07,6.981,32.844"/>
	<path fill="#FFFFFF" d="M5.546,35.031c-0.115,0.162-0.339,0.978,0.411,1.685c0.926,0.871,1.874-0.371,1.375-1.313
		C6.833,34.464,6.098,34.257,5.546,35.031"/>
	<path fill="#FFFFFF" d="M5.311,37.773c-0.092,0.13-0.276,0.794,0.334,1.368c0.752,0.709,1.524-0.301,1.118-1.066
		C6.358,37.312,5.761,37.144,5.311,37.773"/>
	<path fill="#FFFFFF" d="M11.665,34.361c-0.679,0.22-4.281,1.994-4.323,4.903c-0.042,2.907,3.227,3.37,5.332,6.379
		s4.777,3.934,6.198,1.249c1.422-2.685-2.161-3.458-4.009-4.906c-1.846-1.448,0.783-4.72-0.168-6.438
		C13.743,33.829,12.803,33.991,11.665,34.361"/>
	<path fill="#FFFFFF" d="M43.527,31.834l-2.502-1.399c-0.282-0.157-0.638-0.056-0.793,0.228c-0.156,0.28-0.054,0.633,0.227,0.79
		l2.021,1.122l-0.384,1.966c-3.013,1.532-9.294,8.223-9.982,9.524c-0.69,1.301,0.255,1.734,0.255,1.734l-0.55,0.885
		c-0.165,0.266-0.098,0.613,0.153,0.798c0.28,0.207,0.678,0.131,0.861-0.166c4.424-7.099,10.54-10.886,10.54-10.886l2.247,0.919
		l-1.175,0.664l2.835,2.373l-0.946,0.436l2.273,2.221l0.562-0.255C46.871,34.923,43.527,31.834,43.527,31.834 M32.695,45.118
		c-0.253-0.253-0.253-0.665,0-0.919c0.254-0.255,0.666-0.255,0.919,0c0.253,0.254,0.253,0.666,0,0.919
		C33.36,45.371,32.949,45.371,32.695,45.118 M44.624,36.199c-0.253-0.253-0.253-0.666,0-0.918c0.254-0.255,0.666-0.255,0.919,0
		c0.254,0.252,0.254,0.665,0,0.918C45.29,36.454,44.878,36.454,44.624,36.199"/>
	<path fill="#FFFFFF" d="M47.138,7.369c0,0-6.732-1.4-11.142,0.175c-4.408,1.575-3.778,6.495,0,6.908c0,0-0.479,5.333,3.662,4.901
		C45.325,18.762,43.32,8.906,47.138,7.369"/>
	<path fill="#FFFFFF" d="M33.928,19.029c-0.177-0.034-0.301-0.2-0.281-0.382c0.43-3.888,4.577-6.601,4.753-6.713
		c0.163-0.104,0.377-0.058,0.482,0.104c0.105,0.163,0.058,0.377-0.104,0.483c-0.041,0.026-4.044,2.647-4.438,6.202
		c-0.021,0.192-0.193,0.33-0.386,0.309C33.946,19.032,33.937,19.03,33.928,19.029"/>
</g>
</svg>
